# xmcd
#
# Track frame offsets:
# 150
# 15685
# 28427
# 45560
# 62087
# 76285
# 91472
# 104512
# 120647
# 135545
# 151997
# 166587
# 187972
#
# Disc length: 2773 seconds
#
#
# Revision: 0
# Processed by: cddbd v1.5.1PL0 Copyright (c) Steve Scherf et al.
# Submitted via: FreeRIP 2.93 
#
DISCID=a10ad30d
DTITLE=Jason Downs - White Boy With A Feather
DYEAR=2001
DGENRE=Rock
TTITLE0=White Boy With A Feather
TTITLE1=Girls
TTITLE2=Trippin'
TTITLE3=4 Chords
TTITLE4=Trouble
TTITLE5=Ecstasy
TTITLE6=Revenue
TTITLE7=One Of Those Days
TTITLE8=Hey
TTITLE9=Cherokee
TTITLE10=Goodnight
TTITLE11=Better Luck Next Time
TTITLE12=White Boy With A Feather (remix Nightmares On Wax)
EXTD=
EXTT0=
EXTT1=
EXTT2=
EXTT3=
EXTT4=
EXTT5=
EXTT6=
EXTT7=
EXTT8=
EXTT9=
EXTT10=
EXTT11=
EXTT12=
PLAYORDER=
